<?xml version="1.0" encoding="UTF-8"?>
<svg version="1.1" xmlns="http://www.w3.org/2000/svg" width="500" height="500">
<path d="M0 0 C0.96236655 -0.00525911 0.96236655 -0.00525911 1.94417486 -0.01062447 C4.09671057 -0.01993765 6.24897568 -0.01501547 8.40152264 -0.01015663 C9.95931315 -0.01389294 11.51710179 -0.01849438 13.07488745 -0.02388728 C17.35796217 -0.03613513 21.64095888 -0.03585471 25.92404711 -0.03349853 C30.54243625 -0.03309081 35.16080022 -0.04412518 39.77917767 -0.05361366 C48.82837643 -0.07023441 57.87754915 -0.07572369 66.9267619 -0.07683842 C74.28165101 -0.07778838 81.6365315 -0.08189608 88.99141788 -0.08823967 C109.83894194 -0.10585499 130.6864454 -0.11507808 151.53397695 -0.11357872 C153.22021024 -0.11345885 153.22021024 -0.11345885 154.94050884 -0.11333656 C156.62879843 -0.11321392 156.62879843 -0.11321392 158.35119488 -0.1130888 C176.59404562 -0.11227581 194.83681381 -0.13141597 213.07964066 -0.1596133 C231.80640898 -0.18833048 250.53313703 -0.20215423 269.25992793 -0.20042574 C279.7755435 -0.19976144 290.29107253 -0.2052714 300.80666828 -0.22678185 C309.75964306 -0.24497829 318.71249207 -0.24935361 327.66547731 -0.235763 C332.23356728 -0.2292256 336.80141587 -0.22914396 341.36948299 -0.2464695 C345.55242273 -0.2621712 349.73492911 -0.25936645 353.91785809 -0.24190123 C355.42995594 -0.23882492 356.9420859 -0.24248752 358.45414589 -0.25362138 C367.59891212 -0.31649065 374.517631 -0.0339131 381.74592876 6.18695641 C382.28475689 6.82890953 382.82358501 7.47086266 383.37874126 8.13226891 C383.93303814 8.76906578 384.48733501 9.40586266 385.05842876 10.06195641 C388.27027798 14.94049494 388.75454701 19.69939057 388.76101017 25.4360075 C388.76451624 26.1392209 388.76802232 26.84243431 388.77163464 27.56695721 C388.78093793 29.92314228 388.77602814 32.2790796 388.7711668 34.63527489 C388.7749036 36.34170838 388.77950524 38.04814017 388.78489745 39.75456923 C388.79713915 44.44390879 388.7968656 49.13317707 388.7945087 53.82252896 C388.79410083 58.87991381 388.80513679 63.93727571 388.81462383 68.99464989 C388.83124107 78.90297893 388.8367337 88.81128418 388.83784859 98.71962599 C388.83879869 106.7728996 388.84290709 114.82616536 388.84924984 122.87943649 C388.86686399 145.70813738 388.8760884 168.53681946 388.87458889 191.36552719 C388.87450898 192.59638643 388.87442907 193.82724567 388.87434673 195.09540367 C388.87426497 196.32776438 388.87418321 197.5601251 388.87409897 198.82983007 C388.87328595 218.80496768 388.89242714 238.78002991 388.92062347 258.75514571 C388.94934177 279.26171953 388.96316435 299.76825658 388.96143591 320.27485102 C388.96077166 331.78925903 388.96627938 343.303588 388.98779202 354.81797791 C389.0059899 364.62106346 389.01036255 374.42403414 388.99677317 384.22712926 C388.9902366 389.22874948 388.99015127 394.23014924 389.00747967 399.23174858 C389.02318478 403.811912 389.02037293 408.39167969 389.0029114 412.97183331 C388.99983588 414.62725577 389.00349471 416.28270757 389.01463155 417.93809543 C389.07482722 427.52161196 388.99425498 435.90971878 382.53889751 443.59711266 C381.88792095 444.12433922 381.23694439 444.65156578 380.56624126 445.19476891 C379.91784283 445.74004234 379.26944439 446.28531578 378.60139751 446.84711266 C374.13600569 449.84898686 370.34684988 450.50795102 365.00748253 450.51453781 C364.36590483 450.51804389 363.72432712 450.52154996 363.06330767 450.52516228 C360.91077196 450.53447546 358.75850685 450.52955328 356.60595989 450.52469444 C355.04816938 450.52843075 353.49038074 450.53303219 351.93259507 450.53842509 C347.64952036 450.55067294 343.36652365 450.55039252 339.08343542 450.54803634 C334.46504628 450.54762862 329.84668231 450.55866299 325.22830486 450.56815147 C316.17910609 450.58477222 307.12993338 450.59026151 298.08072063 450.59137623 C290.72583152 450.59232619 283.37095103 450.59643389 276.01606464 450.60277748 C255.16854059 450.6203928 234.32103713 450.62961589 213.47350558 450.62811653 C212.34935005 450.62803662 211.22519453 450.62795671 210.06697369 450.62787437 C208.94144729 450.62779261 207.8159209 450.62771085 206.65628765 450.62762661 C188.41343691 450.62681362 170.17066872 450.64595379 151.92784186 450.67415111 C133.20107355 450.70286829 114.4743455 450.71669205 95.7475546 450.71496356 C85.23193903 450.71429925 74.71641 450.71980921 64.20081425 450.74131966 C55.24783947 450.75951611 46.29499046 450.76389142 37.34200522 450.75030081 C32.77391525 450.74376341 28.20606666 450.74368177 23.63799953 450.76100731 C19.4550598 450.77670901 15.27255342 450.77390426 11.08962444 450.75643905 C9.57752659 450.75336273 8.06539663 450.75702533 6.55333664 450.7681592 C-2.59142959 450.83102846 -9.51014847 450.54845091 -16.73844624 444.32758141 C-17.27727436 443.68562828 -17.81610249 443.04367516 -18.37125874 442.38226891 C-18.92555561 441.74547203 -19.47985249 441.10867516 -20.05094624 440.45258141 C-23.26279545 435.57404287 -23.74706448 430.81514724 -23.75352764 425.07853031 C-23.75703372 424.37531691 -23.76053979 423.67210351 -23.76415211 422.94758061 C-23.7734554 420.59139553 -23.76854561 418.23545821 -23.76368427 415.87926292 C-23.76742107 414.17282943 -23.77202271 412.46639765 -23.77741492 410.75996858 C-23.78965662 406.07062902 -23.78938307 401.38136075 -23.78702617 396.69200885 C-23.7866183 391.63462401 -23.79765427 386.5772621 -23.8071413 381.51988792 C-23.82375855 371.61155888 -23.82925117 361.70325363 -23.83036606 351.79491182 C-23.83131616 343.74163821 -23.83542456 335.68837245 -23.84176731 327.63510132 C-23.85938146 304.80640043 -23.86860587 281.97771835 -23.86710636 259.14901062 C-23.86702645 257.91815138 -23.86694654 256.68729214 -23.8668642 255.41913414 C-23.86678244 254.18677343 -23.86670068 252.95441271 -23.86661644 251.68470774 C-23.86580343 231.70957013 -23.88494461 211.73450791 -23.91314094 191.75939211 C-23.94185924 171.25281828 -23.95568182 150.74628124 -23.95395339 130.23968679 C-23.95328913 118.72527878 -23.95879685 107.21094981 -23.98030949 95.69655991 C-23.99850737 85.89347436 -24.00288002 76.09050367 -23.98929064 66.28740855 C-23.98275407 61.28578834 -23.98266874 56.28438857 -23.99999714 51.28278923 C-24.01570225 46.70262581 -24.0128904 42.12285812 -23.99542888 37.5427045 C-23.99235335 35.88728204 -23.99601218 34.23183024 -24.00714903 32.57644238 C-24.06734469 22.99292585 -23.98677245 14.60481903 -17.53141499 6.91742516 C-16.55495014 6.12658531 -16.55495014 6.12658531 -15.55875874 5.31976891 C-14.9103603 4.77449547 -14.26196186 4.22922203 -13.59391499 3.66742516 C-9.12852316 0.66555095 -5.33936735 0.00658679 0 0 Z M50.19124126 70.81976891 C47.79573184 74.27994919 47.37773238 76.00588201 47.36952019 80.17181587 C47.36506234 81.21711645 47.3606045 82.26241703 47.35601157 83.33939338 C47.35619593 84.49675946 47.35638029 85.65412555 47.35657024 86.84656334 C47.35289356 88.0691045 47.34921687 89.29164567 47.34542876 90.55123353 C47.33628947 93.9556168 47.33168951 97.35995182 47.32903945 100.76434278 C47.32514094 104.43181263 47.31556228 108.09926845 47.30682659 111.76672935 C47.28704918 120.62917893 47.27699428 129.49162968 47.2680988 138.35409582 C47.26371792 142.52539608 47.25835059 146.69669506 47.25310993 150.86799431 C47.23609624 164.73068923 47.22160151 178.59338335 47.21436119 192.45608711 C47.21245123 196.05485345 47.21053091 199.65361978 47.20857525 203.25238609 C47.20809151 204.14686566 47.20760777 205.04134522 47.20710937 205.96293023 C47.19880698 220.45674151 47.17346719 234.9504703 47.14099457 249.44424555 C47.10794271 264.31756272 47.08991412 279.19083796 47.08671695 294.06419206 C47.08455009 302.41792745 47.07577587 310.77154258 47.05025578 319.12524223 C47.02857431 326.23894301 47.0204857 333.35249433 47.03022256 340.4662244 C47.03477476 344.09637614 47.03282814 347.72621932 47.01346111 351.35632896 C46.99265022 355.2910282 47.00279076 359.22529982 47.01599407 363.1600399 C47.00502483 364.3084831 46.99405558 365.4569263 46.98275393 366.64017081 C47.03290206 372.8100375 47.29232427 376.60444186 51.50374126 381.25726891 C54.01738883 383.08345978 54.01738883 383.08345978 56.50374126 384.25726891 C57.16374126 384.58726891 57.82374126 384.91726891 58.50374126 385.25726891 C60.4373404 385.3638809 62.3746173 385.40611174 64.31111431 385.41840172 C66.13892689 385.43281303 66.13892689 385.43281303 68.00366497 385.44751549 C69.34092808 385.45236492 70.67819337 385.4566434 72.01546001 385.46039391 C73.38588748 385.46614746 74.75631493 385.47190517 76.12674236 385.47766685 C79.00428422 385.48818002 81.88179813 385.49401978 84.7593565 385.49750328 C88.43342028 385.50297139 92.10711034 385.5269614 95.78105736 385.55547523 C98.61477995 385.57417491 101.44841413 385.57931121 104.28219318 385.58083916 C106.29120082 385.58531206 108.30016099 385.60392862 110.30908489 385.62280846 C120.53402688 385.63575936 120.53402688 385.63575936 129.24592876 380.75726891 C132.4936992 376.45677288 133.62774695 373.61000778 133.63516903 368.28214359 C133.64093075 366.73210653 133.64093075 366.73210653 133.64680886 365.15075558 C133.64594238 364.01186613 133.6450759 362.87297668 133.64418316 361.69957542 C133.64715428 360.49251405 133.6501254 359.28545267 133.65318656 358.04181367 C133.66037477 354.68529386 133.66304649 351.32882521 133.66378403 347.97230136 C133.66563345 344.35461278 133.67318021 340.73693532 133.67991924 337.11925316 C133.69350755 329.20605871 133.69952802 321.29286932 133.7039299 313.37966514 C133.7066914 308.43990709 133.71092857 303.50015101 133.71543407 298.56039429 C133.72762723 284.88723912 133.73792656 271.21408552 133.74130917 257.54092503 C133.74152873 256.66562683 133.7417483 255.79032864 133.74197452 254.88850625 C133.7421928 254.0110987 133.74241107 253.13369116 133.74263597 252.2296955 C133.74307943 250.45169588 133.743526 248.67369626 133.74397564 246.89569664 C133.74419707 246.01374503 133.7444185 245.13179343 133.74464664 244.22311602 C133.74859531 229.92984659 133.76605122 215.63662813 133.78933516 201.34337839 C133.81304013 186.67343142 133.82551062 172.00351003 133.82667708 157.3335436 C133.82759431 149.09498305 133.83335858 140.8564889 133.8514967 132.61794662 C133.86688614 125.60309979 133.87202499 118.58833988 133.86375859 111.57347938 C133.859848 107.99400371 133.86080144 104.41470315 133.87481594 100.83524895 C133.88986776 96.9553945 133.88170044 93.07578739 133.87123394 89.19591331 C133.87929034 88.06371603 133.88734675 86.93151874 133.89564729 85.76501244 C133.85527829 79.38679742 133.50015228 74.5423966 129.00374126 69.61273766 C124.30932236 65.95744794 121.33918872 65.13272091 115.47517681 65.09613609 C114.23346218 65.08652855 112.99174755 65.07692101 111.7124052 65.06702232 C110.35509201 65.06217384 108.99777668 65.05789514 107.64046001 65.05414391 C106.24664591 65.04838927 104.85283183 65.04263158 103.45901775 65.03687096 C100.53617771 65.02636928 97.6133651 65.02052139 94.69050884 65.01703453 C90.95472355 65.01155595 87.21930385 64.98753845 83.48363304 64.95906258 C80.60362997 64.94038905 77.72371407 64.93522807 74.84365559 64.93369865 C73.46700641 64.93068147 72.09035843 64.92268458 70.71376896 64.90951347 C68.78274977 64.89235862 66.85157914 64.89619162 64.92048931 64.90082359 C63.27526539 64.89535515 63.27526539 64.89535515 61.59680462 64.88977623 C56.70254732 65.47127215 53.47734854 67.17840679 50.19124126 70.81976891 Z M157.50374126 75.25726891 C152.74479117 82.38193985 152.34746944 89.71358921 152.33577251 98.05805016 C152.33244411 98.89386116 152.32911572 99.72967216 152.32568645 100.59081078 C152.3206421 102.35324113 152.31827736 104.11568095 152.31843853 105.87811852 C152.31625668 108.55088907 152.29808719 111.22324334 152.27913189 113.89594078 C152.27619638 115.61664251 152.27421264 117.33734618 152.27327251 119.05805016 C152.266087 119.84585365 152.25890148 120.63365715 152.25149822 121.44533348 C152.2880986 130.49557085 153.61717347 138.06529062 160.00374126 144.85101891 C168.60329511 152.97281976 178.75639112 152.69500861 189.9624815 152.6454525 C191.51407012 152.64952374 193.06565585 152.65486871 194.61723614 152.66138268 C198.80946273 152.67499761 203.00146651 152.66978154 207.19369674 152.66024542 C211.59458187 152.65261715 215.99544872 152.65970332 220.39633465 152.66440392 C227.78609399 152.66985285 235.17576321 152.66269314 242.56550884 152.64838219 C251.09010593 152.63206337 259.61448765 152.63734205 268.13907951 152.6538614 C275.47695481 152.66750812 282.81476556 152.66938022 290.15264946 152.6615454 C294.52692761 152.65688557 298.90110479 152.6561971 303.27537632 152.66615486 C307.3901777 152.67486855 311.50470352 152.66872291 315.61947536 152.65147209 C317.12301903 152.64753037 318.62658619 152.64860127 320.13012028 152.65526009 C330.72787744 152.69784098 340.94229834 152.60974545 349.03499126 144.93695641 C353.54805487 139.77574005 355.60691383 134.4230045 355.66487408 127.61566734 C355.67448162 126.70081566 355.68408916 125.78596397 355.69398785 124.84338951 C355.69823772 123.86106346 355.7024876 122.87873741 355.70686626 121.86664391 C355.71256634 120.84806297 355.71826641 119.82948204 355.72413921 118.78003502 C355.7335801 116.62483315 355.74011957 114.46961691 355.74397564 112.31439781 C355.75366417 109.03337659 355.78468966 105.75298648 355.81624126 102.47211266 C355.82277351 100.37446011 355.82802311 98.2768031 355.83186626 96.17914391 C355.85038647 94.71780022 355.85038647 94.71780022 355.86928082 93.22693443 C355.84039313 84.29947773 353.92906376 77.83201751 347.50374126 71.25726891 C338.75050503 64.25467992 328.77483829 64.96289514 318.14265728 64.9826107 C316.5895949 64.97825821 315.03653467 64.97307327 313.48347759 64.96712303 C309.28304339 64.95378036 305.08269942 64.95314901 300.88224816 64.95568633 C297.36843362 64.95675914 293.85463711 64.95186481 290.34082645 64.94708091 C282.04803097 64.93600234 273.75528079 64.93553918 265.4624815 64.94159508 C256.92255763 64.94763575 248.38279849 64.93531771 239.84290272 64.91402501 C232.49572947 64.89638334 225.14860854 64.89041165 217.80141491 64.89366275 C213.41987813 64.89547147 209.03845891 64.89288046 204.65694141 64.87894821 C200.5356053 64.86633244 196.41452525 64.86834921 192.29319286 64.8813591 C190.78599935 64.88371619 189.27878761 64.88102146 187.77161503 64.87273598 C175.56815715 64.81051742 165.93417309 65.68243457 157.50374126 75.25726891 Z M158.56624126 201.19476891 C153.19730052 209.16683243 152.34849341 215.95110439 152.33577251 225.31195641 C152.33244411 226.17233513 152.32911572 227.03271385 152.32568645 227.91916466 C152.32064171 229.73286978 152.31827737 231.54658412 152.31843853 233.36029625 C152.31625378 236.1164759 152.29807675 238.87225377 152.27913189 241.62836266 C152.276197 243.39789255 152.27421284 245.16742433 152.27327251 246.93695641 C152.266087 247.75179497 152.25890148 248.56663353 152.25149822 249.40616417 C152.28225156 257.21147251 153.4822468 264.96935649 158.50374126 271.25726891 C164.61711926 276.83236204 169.98989832 279.50151178 178.35318279 279.52469444 C179.36792873 279.53149111 179.36792873 279.53149111 180.40317458 279.53842509 C182.66308521 279.55105436 184.92275439 279.5494497 187.18269634 279.54779625 C188.80590403 279.55378246 190.42910888 279.56058822 192.05230999 279.56815147 C196.4573845 279.58581007 200.86238129 279.59050682 205.26748776 279.59178305 C208.02127753 279.59320538 210.77504757 279.59747654 213.52883244 279.60277748 C223.14068002 279.62127785 232.75247216 279.62944815 242.36433697 279.62787437 C251.3160816 279.62667323 260.26758502 279.64777023 269.21926862 279.6793617 C276.91116206 279.70553735 284.6029768 279.71624112 292.29491442 279.71496356 C296.8860972 279.71445427 301.47706562 279.72011904 306.06820393 279.74131966 C310.38817277 279.76072359 314.70772327 279.76081191 319.0277071 279.74628639 C320.60950108 279.7441998 322.19132139 279.74889029 323.77307034 279.76100731 C333.1224945 279.82796629 340.30864466 279.71677661 347.71077251 273.36273766 C348.2405772 272.72980797 348.77038189 272.09687828 349.31624126 271.44476891 C350.13028423 270.50697594 350.13028423 270.50697594 350.96077251 269.55023766 C355.45362347 262.8735199 355.96080316 257.26901745 355.93733501 249.39008141 C355.94257687 248.35592094 355.94781872 247.32176048 355.95321941 246.25626183 C355.95962142 244.07610532 355.95832631 241.89591418 355.94978619 239.715765 C355.94128553 236.39953935 355.97004967 233.08504307 356.00178814 229.76898766 C356.00340072 227.64268608 356.00282154 225.51638149 355.99983501 223.39008141 C356.01668598 221.91778572 356.01668598 221.91778572 356.03387737 220.41574669 C355.95749799 212.78084245 354.34480167 206.5862395 349.32014751 200.69867516 C348.57635845 200.07863609 347.83256939 199.45859703 347.06624126 198.81976891 C346.32503033 198.18168297 345.58381939 197.54359703 344.82014751 196.88617516 C340.17739981 193.62137618 336.29905799 193.00481954 330.66775799 192.98311424 C329.99267183 192.97787756 329.31758567 192.97264089 328.62204236 192.96724552 C326.36680926 192.95228049 324.11180375 192.95154114 321.85652447 192.95087242 C320.23656108 192.94324842 318.6166013 192.93482051 316.99664593 192.92564964 C312.59970957 192.90371788 308.20284277 192.8949072 303.8058579 192.8898232 C301.05607262 192.88617721 298.30630549 192.8799358 295.55652714 192.87282181 C285.95534625 192.84832918 276.35421936 192.8352764 266.75300884 192.8317318 C257.81716006 192.82809956 248.88165538 192.79822616 239.94591171 192.75632721 C232.2641776 192.72157688 224.58255723 192.70618251 216.90074509 192.70548576 C212.31726566 192.70469438 207.73413663 192.69602032 203.15073872 192.6674881 C198.83562438 192.64122688 194.52114888 192.63914678 190.20599079 192.65514374 C188.62825402 192.65695202 187.05047984 192.65032386 185.47282314 192.63432503 C175.25816676 192.53711199 165.80032157 193.10903041 158.56624126 201.19476891 Z " fill="#0574A4" transform="translate(67.49625873565674,24.74273109436035)"/>
<path d="M0 0 C0.99 0.33 1.98 0.66 3 1 C2.51278642 1.71602388 2.02557284 2.43204777 1.52359521 3.16976935 C-0.11991207 6.22274868 -0.37568256 7.85872853 -0.37752342 11.28369045 C-0.38534666 12.33496417 -0.39316991 13.3862379 -0.40123022 14.4693684 C-0.39453805 15.61799596 -0.38784589 16.76662352 -0.38095093 17.95005798 C-0.3856309 19.17516242 -0.39031087 20.40026686 -0.39513266 21.66249567 C-0.40503124 25.06026315 -0.40146493 28.45753344 -0.39217401 31.85527074 C-0.38539061 35.52065265 -0.39586126 39.18599088 -0.40411377 42.85136414 C-0.4174613 50.0309885 -0.41456873 57.21051884 -0.40587585 64.3901469 C-0.39910319 70.22522484 -0.39818077 76.0602764 -0.4014473 81.89535713 C-0.401907 82.72555572 -0.40236669 83.5557543 -0.40284032 84.41111042 C-0.40379949 86.09760837 -0.40477213 87.78410631 -0.4057581 89.47060425 C-0.41431511 105.28936931 -0.40447325 121.10808225 -0.388357 136.92683876 C-0.374956 150.50064975 -0.3772795 164.07438376 -0.39111328 177.64819336 C-0.40716786 193.40845319 -0.4134885 209.16866729 -0.40427649 224.92893416 C-0.40332084 226.60956513 -0.40237773 228.29019611 -0.4014473 229.9708271 C-0.40075306 231.21119791 -0.40075306 231.21119791 -0.40004479 232.47662671 C-0.39745435 238.30431867 -0.40182712 244.13198164 -0.40888596 249.95966911 C-0.4172999 257.06231472 -0.41502316 264.16486087 -0.39904372 271.26749509 C-0.39115917 274.89153068 -0.38807242 278.51540044 -0.39799118 282.13943481 C-0.40857908 286.06736979 -0.39593675 289.99503319 -0.38095093 293.92295837 C-0.38764309 295.06935522 -0.39433526 296.21575206 -0.40123022 297.3968882 C-0.35893987 303.09388851 -0.16693237 307.18331245 3 312 C1.125 311.8125 1.125 311.8125 -1 311 C-2.76765314 307.48750833 -3.25075715 304.60072916 -3.25447559 300.69789886 C-3.26030779 299.64252505 -3.26613998 298.58715123 -3.27214891 297.49979639 C-3.26836958 296.34659576 -3.26459026 295.19339513 -3.26069641 294.00524902 C-3.26452196 292.77535547 -3.26834751 291.54546191 -3.27228898 290.27829885 C-3.28082492 286.86730112 -3.28038434 283.45651883 -3.27610838 280.04552722 C-3.27364325 276.36585526 -3.28265261 272.6862087 -3.29014587 269.00654602 C-3.30290028 261.799204 -3.30468569 254.59189923 -3.30234561 247.38454783 C-3.30056332 241.52753511 -3.30231017 235.67053371 -3.30657005 229.81352234 C-3.30716524 228.98025967 -3.30776043 228.146997 -3.30837366 227.28848395 C-3.30958539 225.59578327 -3.31079952 223.9030826 -3.31201603 222.21038193 C-3.32289417 206.33395666 -3.32072763 190.45755262 -3.31463119 174.58112615 C-3.30946028 160.05127689 -3.32072155 145.52149463 -3.33972941 130.99165863 C-3.35909206 116.07643616 -3.36736667 101.16124542 -3.36360615 86.2460103 C-3.36169191 77.87058336 -3.36420348 69.49521346 -3.37832069 61.11979675 C-3.39021536 53.99077876 -3.39166088 46.86185296 -3.37953053 39.73283374 C-3.37362867 36.09474091 -3.3725783 32.45681686 -3.38453293 28.81873512 C-3.39733398 24.87732276 -3.38695851 20.9361681 -3.3742218 16.99475098 C-3.38159609 15.84155035 -3.38897037 14.68834971 -3.39656812 13.50020361 C-3.38936158 12.44482979 -3.38215503 11.38945598 -3.37473011 10.30210114 C-3.37478513 9.39234354 -3.37484014 8.48258595 -3.37489682 7.54525995 C-2.9225292 4.47403308 -1.73321163 2.54552867 0 0 Z " fill="#107299" transform="translate(116,94)"/>
<path d="M0 0 C1.98 0 3.96 0 6 0 C1.81466997 3.50662786 -0.92572968 5.12570319 -6.3984251 5.12304783 C-7.75545891 5.1260344 -7.75545891 5.1260344 -9.13990754 5.12908131 C-10.13503367 5.12616847 -11.13015981 5.12325563 -12.15544128 5.12025452 C-13.21156107 5.12110894 -14.26768085 5.12196337 -15.35580426 5.12284368 C-18.91194314 5.1244972 -22.46803535 5.11897917 -26.02416992 5.11352539 C-28.56645202 5.11324347 -31.10873419 5.11340136 -33.65101624 5.1139679 C-39.133263 5.11419597 -44.61549461 5.1113506 -50.09773827 5.10573006 C-58.02417614 5.09760895 -65.95060826 5.09499921 -73.87704984 5.09374207 C-86.73664 5.09155251 -99.59622383 5.08489503 -112.45581055 5.07543945 C-124.94897429 5.06626285 -137.44213631 5.05918323 -149.93530273 5.05493164 C-150.70515942 5.05466892 -151.47501611 5.05440619 -152.26820179 5.05413551 C-156.13028026 5.05283049 -159.99235874 5.05156678 -163.85443723 5.05032361 C-195.90296276 5.03995399 -227.9514805 5.02233829 -260 5 C-258 3 -258 3 -256.09729946 2.75160301 C-255.31431614 2.75236245 -254.53133281 2.75312189 -253.72462273 2.75390434 C-252.37057549 2.7479312 -252.37057549 2.7479312 -250.98917377 2.74183738 C-249.99113479 2.74766307 -248.99309582 2.75348875 -247.96481323 2.75949097 C-246.90954787 2.75778212 -245.85428252 2.75607327 -244.76703942 2.75431263 C-241.20774378 2.75100113 -237.64863393 2.76204874 -234.08935547 2.77294922 C-231.54722091 2.77351297 -229.00508603 2.77319747 -226.46295166 2.77206421 C-220.97794071 2.7716078 -215.4929903 2.77730468 -210.00799179 2.78853989 C-202.07755587 2.80477366 -194.14714296 2.81000071 -186.21669222 2.81251587 C-173.35099143 2.81689631 -160.48531595 2.83021488 -147.61962891 2.84912109 C-135.1196302 2.86747086 -122.61963836 2.88163178 -110.11962891 2.89013672 C-109.34950949 2.89066217 -108.57939008 2.89118761 -107.78593372 2.89172898 C-103.92258465 2.894339 -100.05923553 2.89686643 -96.19588637 2.89935279 C-64.13057251 2.92009617 -32.06528977 2.95533118 0 3 C0 2.01 0 1.02 0 0 Z " fill="#1A6C92" transform="translate(441,470)"/>
<path d="M0 0 C0.66 0.99 1.32 1.98 2 3 C1.67 3.99 1.34 4.98 1 6 C0.90182436 8.26096919 0.86615722 10.52478827 0.8613348 12.7878828 C0.85849258 13.48526592 0.85565036 14.18264904 0.85272202 14.90116498 C0.84435077 17.25542607 0.84310491 19.60963811 0.84178162 21.96391296 C0.83721792 23.66179627 0.83221818 25.35967846 0.82681805 27.05755931 C0.81320563 31.73682564 0.80580962 36.41608467 0.79939139 41.09536564 C0.79140105 46.13626852 0.77769859 51.17715616 0.76467896 56.2180481 C0.74289678 64.95626538 0.72475867 73.69448419 0.70907402 82.43271446 C0.68639123 95.06683278 0.65824621 107.70093424 0.62875474 120.33503828 C0.5810593 140.83150572 0.53780041 161.32798004 0.49731445 181.82446289 C0.45796945 201.73853084 0.41654562 221.65259267 0.37231445 241.56665039 C0.36959018 242.7935174 0.36686591 244.02038441 0.36405908 245.28442921 C0.35037977 251.43907067 0.33665946 257.59371204 0.32291877 263.74835336 C0.20892333 314.83222282 0.10212077 365.91610552 0 417 C-0.33 417 -0.66 417 -1 417 C-1.02286905 364.30991319 -1.04049959 311.61982688 -1.05106533 258.92973609 C-1.0523161 252.71479475 -1.05361041 246.49985343 -1.05493164 240.28491211 C-1.05519395 239.04758453 -1.05545626 237.81025694 -1.05572652 236.53543458 C-1.06008254 216.4782947 -1.06796972 196.42115767 -1.0771528 176.36401948 C-1.08649123 155.79664947 -1.09205601 135.22928096 -1.09408849 114.66190892 C-1.09546333 101.96201473 -1.09981178 89.2621286 -1.10791647 76.56223688 C-1.11318625 67.86356054 -1.11480376 59.16488839 -1.11350138 50.46621057 C-1.11285837 45.44114717 -1.1138714 40.4160979 -1.11920547 35.39103699 C-1.1240474 30.7962724 -1.12433337 26.20153155 -1.12089889 21.6067659 C-1.12047399 19.93915915 -1.12176304 18.27155095 -1.12488318 16.60394707 C-1.12886162 14.34751347 -1.12675425 12.091167 -1.12304783 9.83473492 C-1.12342755 8.57824034 -1.12380727 7.32174577 -1.1241985 6.02717561 C-1 3 -1 3 0 0 Z " fill="#24779C" transform="translate(45,40)"/>
<path d="M0 0 C0.33 0 0.66 0 1 0 C1.00097681 0.62828064 1.00195362 1.25656127 1.00296003 1.90388072 C1.06121628 39.13060646 1.13500108 76.35727127 1.22898628 113.58392457 C1.24025461 118.05253146 1.25139304 122.52113867 1.26245117 126.98974609 C1.26465486 127.87937543 1.26685854 128.76900477 1.269129 129.68559258 C1.30451341 144.09541755 1.32937109 158.50524248 1.35034702 172.91509481 C1.37209996 187.69798082 1.40514556 202.48081038 1.44870156 217.26364839 C1.47522701 226.38742435 1.4929158 235.51112996 1.49934604 244.63494258 C1.50459719 250.88920356 1.52080497 257.14337598 1.54566566 263.39758952 C1.55969006 267.00740101 1.56884799 270.61705394 1.56500816 274.22689438 C1.56097214 278.1397955 1.57998985 282.05239073 1.60127258 285.96524048 C1.59642501 287.10726602 1.59157743 288.24929157 1.58658296 289.42592394 C1.63779273 295.11195251 1.84414268 299.19088782 5 304 C1.125 303.125 1.125 303.125 0 302 C-0.097084 300.38923714 -0.12371602 298.77419204 -0.12304783 297.16050625 C-0.12503888 296.10652974 -0.12702993 295.05255322 -0.12908131 293.96663803 C-0.12471205 292.20840771 -0.12471205 292.20840771 -0.12025452 290.41465759 C-0.12110894 289.18057036 -0.12196337 287.94648312 -0.12284368 286.6749993 C-0.12421193 283.23396238 -0.12106423 279.79298164 -0.11606562 276.35195148 C-0.11176461 272.64709462 -0.1132073 268.94223963 -0.1139679 265.23738098 C-0.11449335 258.81328351 -0.11134428 252.38919617 -0.10573006 245.96510124 C-0.097618 236.67683152 -0.09500014 227.38856671 -0.09374207 218.10029382 C-0.09155108 203.03227318 -0.08488974 187.96425794 -0.07543945 172.89624023 C-0.06626653 158.25528999 -0.05918511 143.61434121 -0.05493164 128.97338867 C-0.05466892 128.07157873 -0.05440619 127.16976879 -0.05413551 126.24063127 C-0.05283051 121.7167124 -0.05156679 117.19279351 -0.05032361 112.66887462 C-0.03994955 75.11257927 -0.02232998 37.55629005 0 0 Z " fill="#38708D" transform="translate(114,102)"/>
<path d="M0 0 C0.625 2.5625 0.625 2.5625 1 5 C-0.50796567 4.26866112 -0.50796567 4.26866112 -2.0463953 3.52254772 C-5.85593914 1.89866449 -9.09223695 1.62994551 -13.25767517 1.63923645 C-13.95377649 1.63667318 -14.64987782 1.6341099 -15.36707312 1.63146895 C-17.68107362 1.62655877 -19.99441003 1.64297725 -22.30834961 1.65942383 C-23.97438542 1.6602707 -25.64042236 1.65979378 -27.30645752 1.65809631 C-31.81632849 1.65723729 -36.32595898 1.67484797 -40.83577418 1.69581819 C-45.55363536 1.71460049 -50.27150234 1.71633665 -54.98939514 1.71989441 C-63.91758041 1.7292103 -72.84565519 1.75381794 -81.77379185 1.78394288 C-91.94061335 1.81750105 -102.1074402 1.83397646 -112.27430332 1.84902918 C-133.1829305 1.88036788 -154.09145828 1.93311954 -175 2 C-172.1581222 -0.8418778 -170.26534631 -0.26354745 -166.28112793 -0.28520203 C-165.23325017 -0.29494898 -165.23325017 -0.29494898 -164.16420317 -0.30489284 C-161.81190574 -0.32431486 -159.45979054 -0.32946244 -157.10742188 -0.3347168 C-155.4256586 -0.34564647 -153.74390072 -0.35743645 -152.06214905 -0.37002563 C-147.48585048 -0.40169305 -142.90957485 -0.4208931 -138.33320045 -0.43764853 C-133.55213403 -0.45696043 -128.77113184 -0.48670147 -123.9901123 -0.51509094 C-115.96006564 -0.5611987 -107.93001108 -0.5995829 -99.89990234 -0.63305664 C-90.60561291 -0.6718597 -81.31142618 -0.72112511 -72.01722097 -0.77638692 C-63.08983708 -0.82936741 -54.16243307 -0.87657534 -45.23500061 -0.92057228 C-41.42960066 -0.93933208 -37.62421593 -0.95983599 -33.8188324 -0.98166466 C-29.34065897 -1.00697522 -24.86249101 -1.02715039 -20.38427544 -1.043293 C-18.73707214 -1.05001866 -17.08987489 -1.0584732 -15.4426899 -1.06874657 C-13.20140641 -1.08242558 -10.96018767 -1.08991611 -8.71887207 -1.0957489 C-6.8340147 -1.10429665 -6.8340147 -1.10429665 -4.91107941 -1.11301708 C-2 -1 -2 -1 0 0 Z " fill="#257696" transform="translate(411,217)"/>
<path d="M0 0 C0.99 0.33 1.98 0.66 3 1 C2.45730469 1.42410156 1.91460937 1.84820312 1.35546875 2.28515625 C-5.43297386 7.85045604 -7.78610276 12.23666861 -9 21 C-9.1442708 23.60716728 -9.25330095 26.19601836 -9.31640625 28.8046875 C-9.33718735 29.5286673 -9.35796844 30.25264709 -9.37937927 30.99856567 C-9.44428853 33.29062239 -9.50348437 35.58278474 -9.5625 37.875 C-9.60574112 39.43751053 -9.64935711 41.00001072 -9.69335938 42.5625 C-9.79990896 46.37489426 -9.90133795 50.1873938 -10 54 C-10.33 54 -10.66 54 -11 54 C-11.0247279 48.23421542 -11.04287328 42.46846175 -11.05493164 36.70263672 C-11.05995887 34.74136823 -11.06678157 32.78010348 -11.07543945 30.81884766 C-11.08757545 27.99901403 -11.09324444 25.17922998 -11.09765625 22.359375 C-11.10281754 21.48319519 -11.10797882 20.60701538 -11.11329651 19.70428467 C-11.11337204 18.88373596 -11.11344757 18.06318726 -11.11352539 17.21777344 C-11.115746 16.49829529 -11.11796661 15.77881714 -11.12025452 15.03753662 C-10.94536658 12.07431677 -10.32604856 9.65209713 -9 7 C-8.01 7 -7.02 7 -6 7 C-6 6.34 -6 5.68 -6 5 C-5.34 5 -4.68 5 -4 5 C-4 4.34 -4 3.68 -4 3 C-2.1875 1.3125 -2.1875 1.3125 0 0 Z " fill="#1C6F90" transform="translate(230,93)"/>
<path d="M0 0 C0.33 0 0.66 0 1 0 C0.98952637 1.30557861 0.97905273 2.61115723 0.96826172 3.95629883 C0.93179771 8.84477956 0.90900425 13.73324849 0.89013672 18.62182617 C0.8801389 20.72926868 0.86653622 22.83669753 0.84912109 24.9440918 C0.82459718 27.99010611 0.81345441 31.0359355 0.8046875 34.08203125 C0.79436493 35.00957718 0.78404236 35.93712311 0.77340698 36.89277649 C0.7723065 43.44998794 1.63521271 49.59045171 3 56 C2.01 55.67 1.02 55.34 0 55 C-0.89959334 48.85962782 -1.14658003 42.90032614 -1.1328125 36.69921875 C-1.13376923 35.74102737 -1.13472595 34.782836 -1.13571167 33.79560852 C-1.13638837 31.7845554 -1.13456986 29.77350003 -1.13037109 27.76245117 C-1.12498598 24.6794754 -1.13034847 21.59664335 -1.13671875 18.51367188 C-1.13605846 16.55468718 -1.1347783 14.59570257 -1.1328125 12.63671875 C-1.13483673 11.71485275 -1.13686096 10.79298676 -1.13894653 9.84318542 C-1.13579437 8.98832047 -1.13264221 8.13345551 -1.12939453 7.25268555 C-1.12859894 6.50182175 -1.12780334 5.75095795 -1.12698364 4.9773407 C-1 3 -1 3 0 0 Z " fill="#1C6F91" transform="translate(220,236)"/>
<path d="M0 0 C0.33 0 0.66 0 1 0 C1.01458252 0.57443848 1.02916504 1.14887695 1.04418945 1.74072266 C1.11913725 4.36945696 1.21563994 6.99698552 1.3125 9.625 C1.33505859 10.52863281 1.35761719 11.43226563 1.38085938 12.36328125 C1.59235003 17.63132126 2.15023674 21.40065018 5 26 C1.125 25.125 1.125 25.125 0 24 C-0.08726223 22.21928754 -0.10699041 20.4351686 -0.09765625 18.65234375 C-0.09443359 17.57275391 -0.09121094 16.49316406 -0.08789062 15.38085938 C-0.07951172 14.24455078 -0.07113281 13.10824219 -0.0625 11.9375 C-0.05798828 10.79732422 -0.05347656 9.65714844 -0.04882812 8.48242188 C-0.03699747 5.65489649 -0.0205141 2.8274736 0 0 Z " fill="#256D89" transform="translate(114,380)"/>
<path d="M0 0 C0.56847656 0.40992188 1.13695312 0.81984375 1.72265625 1.2421875 C6.43455739 4.53029214 10.37025993 6.80218296 16 8 C16 8.33 16 8.66 16 9 C11.45194365 9.17835515 8.1205746 8.99785435 4 7 C4 6.34 4 5.68 4 5 C2.35 4.67 0.7 4.34 -1 4 C-0.67 2.68 -0.34 1.36 0 0 Z " fill="#1B7293" transform="translate(226,168)"/>
<path d="M0 0 C2.97 0.33 5.94 0.66 9 1 C8.01 2.485 8.01 2.485 7 4 C6.60612212 6.32387947 6.26513915 8.65793749 6 11 C3.63852662 7.45778993 1.87874097 3.82010663 0 0 Z " fill="#157598" transform="translate(417,226)"/>
<path d="M0 0 C0 0.66 0 1.32 0 2 C-1.1446875 2.6496875 -1.1446875 2.6496875 -2.3125 3.3125 C-5.35745588 5.22444904 -6.20435635 6.95521294 -8 10 C-10.1875 11.3125 -10.1875 11.3125 -12 12 C-10.82763323 7.16398706 -5.40844892 0 0 0 Z " fill="#257691" transform="translate(58,27)"/>
<path d="M0 0 C1.32 0.33 2.64 0.66 4 1 C3.2575 1.495 2.515 1.99 1.75 2.5 C-1.65862674 5.59875158 -3.18726063 8.82766134 -5 13 C-5.33 13 -5.66 13 -6 13 C-6.35281338 8.8029908 -5.64185432 6.93477927 -3 3.6875 C-2.443125 2.99011719 -1.88625 2.29273438 -1.3125 1.57421875 C-0.6628125 0.79498047 -0.6628125 0.79498047 0 0 Z " fill="#1D718C" transform="translate(227,222)"/>
<path d="M0 0 C0.66 0.33 1.32 0.66 2 1 C2.625 4.0625 2.625 4.0625 3 7 C2.01 6.67 1.02 6.34 0 6 C0 5.34 0 4.68 0 4 C-1.65 4.66 -3.3 5.32 -5 6 C-3.63016497 2.83884224 -3.0109362 2.0072908 0 0 Z " fill="#0F749D" transform="translate(419,167)"/>
<path d="M0 0 C0.99 0.33 1.98 0.66 3 1 C1.35 4.3 -0.3 7.6 -2 11 C-2.33 11 -2.66 11 -3 11 C-3.32613618 6.32538149 -2.70582788 3.83325617 0 0 Z " fill="#176C8C" transform="translate(116,94)"/>
<path d="M0 0 C0.625 2.5625 0.625 2.5625 1 5 C-1.31 4.01 -3.62 3.02 -6 2 C-6 1.34 -6 0.68 -6 0 C-2.25 -1.125 -2.25 -1.125 0 0 Z " fill="#137399" transform="translate(411,217)"/>
<path d="M0 0 C0.33 0 0.66 0 1 0 C1.13277344 0.60328125 1.26554688 1.2065625 1.40234375 1.828125 C1.66724609 3.02695313 1.66724609 3.02695313 1.9375 4.25 C2.11152344 5.03890625 2.28554687 5.8278125 2.46484375 6.640625 C2.947556 8.76878703 3.46163178 10.88532842 4 13 C3.01 12.67 2.02 12.34 1 12 C0.01751476 7.9472484 -0.08159574 4.16138263 0 0 Z " fill="#1F6F8C" transform="translate(220,153)"/>
<path d="M0 0 C0.99 0.33 1.98 0.66 3 1 C1.55746343 4.36591866 -0.33264727 6.51047079 -3 9 C-2.01 6.03 -1.02 3.06 0 0 Z " fill="#187593" transform="translate(422,285)"/>
<path d="M0 0 C0.33 0.99 0.66 1.98 1 3 C2.65 3 4.3 3 6 3 C5.34 3.66 4.68 4.32 4 5 C0.875 4.625 0.875 4.625 -2 4 C-2 3.01 -2 2.02 -2 1 C-1.34 0.67 -0.68 0.34 0 0 Z " fill="#1473A0" transform="translate(231,88)"/>
</svg>
